<?xml version="1.0" standalone="no"?>
<!DOCTYPE svg PUBLIC "-//W3C//DTD SVG 20010904//EN"
 "http://www.w3.org/TR/2001/REC-SVG-20010904/DTD/svg10.dtd">
<svg version="1.0" xmlns="http://www.w3.org/2000/svg"
 width="650.000000pt" height="650.000000pt" viewBox="0 0 650.000000 650.000000"
 preserveAspectRatio="xMidYMid meet">
<metadata>
Created by potrace 1.11, written by Peter Selinger 2001-2013
</metadata>
<g transform="translate(0.000000,650.000000) scale(0.100000,-0.100000)"
fill="#000000" stroke="none">
<path d="M1815 5598 c-42 -12 -76 -43 -79 -73 -3 -26 67 -183 104 -235 11 -15
61 -108 111 -206 153 -298 388 -713 442 -779 22 -26 69 -110 222 -390 21 -38
60 -109 86 -157 45 -81 83 -152 156 -288 34 -64 72 -132 117 -210 18 -30 83
-156 145 -280 143 -283 287 -565 406 -790 51 -96 124 -236 164 -311 39 -75 71
-147 71 -160 0 -29 95 -217 134 -266 38 -47 77 -64 189 -83 126 -21 219 -13
252 21 51 52 65 195 26 269 -20 39 -47 56 -105 63 -45 6 -172 -23 -211 -49
-43 -28 -87 -12 -130 46 -20 28 -42 50 -48 50 -16 0 -20 7 -242 435 -43 83
-81 155 -85 160 -4 6 -56 105 -115 220 -104 203 -170 331 -260 500 -23 44 -84
159 -135 255 -113 215 -173 328 -213 400 -32 58 -210 381 -283 514 -24 43 -44
85 -44 93 0 8 -12 38 -26 67 -14 28 -46 101 -70 161 -25 61 -60 142 -79 182
-19 40 -44 96 -57 125 -47 112 -295 590 -342 660 -37 55 -60 68 -101 56z"/>
<path d="M5119 4385 c-2 -2 -24 -6 -49 -10 -521 -74 -902 -423 -1007 -919 -18
-86 -25 -368 -11 -456 4 -25 10 -61 14 -80 10 -64 64 -212 104 -289 116 -221
318 -405 560 -510 55 -24 190 -65 245 -75 270 -50 490 -50 770 0 70 13 206 58
281 93 95 45 129 73 116 99 -9 18 -27 111 -42 222 -5 36 -8 153 -7 260 2 212
8 239 62 292 15 16 53 35 84 44 101 29 101 29 101 73 0 29 -5 40 -17 43 -10 2
-232 4 -493 3 l-475 0 -1 -47 -1 -47 46 -7 c49 -6 52 -7 117 -19 103 -18 180
-80 204 -164 32 -109 32 -501 1 -559 -5 -9 -10 -21 -11 -27 -12 -53 -55 -99
-116 -127 -65 -28 -93 -32 -221 -31 -119 1 -177 11 -288 49 -318 111 -550 455
-602 894 -14 123 -6 471 12 501 2 3 6 18 9 33 41 225 189 441 371 541 118 65
251 94 413 90 325 -8 542 -167 629 -462 l17 -59 60 2 c34 0 64 2 67 3 3 0 5
18 3 39 -1 20 -6 98 -9 172 -7 146 -13 248 -14 267 -1 15 -121 72 -211 101
-59 19 -146 40 -240 58 -37 7 -465 15 -471 9z"/>
<path d="M106 4305 c2 -19 5 -39 8 -44 3 -4 38 -13 78 -20 116 -20 186 -70
207 -146 8 -28 10 -303 9 -915 -3 -873 -3 -875 -24 -915 -37 -69 -72 -88 -214
-121 l-65 -15 3 -39 4 -40 494 0 c542 0 500 -5 494 55 -3 28 -10 34 -50 39
-82 10 -169 46 -203 84 -46 51 -46 47 -46 977 -1 1003 -7 930 84 975 43 21 64
24 170 26 315 4 521 -107 595 -321 28 -79 35 -131 34 -245 0 -115 -9 -169 -37
-235 -86 -205 -280 -312 -602 -331 -119 -7 -130 -15 -126 -81 2 -42 22 -50
124 -47 90 1 212 10 253 18 11 2 41 7 68 10 27 4 52 9 55 11 3 1 22 6 41 9 64
10 221 65 294 104 165 86 269 199 324 354 22 61 26 93 28 198 3 143 -8 199
-61 306 -76 155 -251 273 -495 333 -47 11 -107 23 -135 26 -27 4 -61 9 -75 12
-14 3 -298 8 -631 10 l-605 5 2 -37z"/>
</g>
</svg>
